<?xml version="1.0" encoding="UTF-8"?><svg id="Layer_1" xmlns="http://www.w3.org/2000/svg" viewBox="0 0 180.87 20.13"><defs><style>.cls-1,.cls-2{fill:#fff;}.cls-2{fill-rule:evenodd;}</style></defs><path class="cls-2" d="m7.57,12.08H2.67v8.05H0V0h7.57c3.71,0,6.33,2.33,6.33,6.03s-2.62,6.06-6.33,6.06h0Zm-.19-9.64H2.67v7.19h4.7c2.32,0,3.86-1.22,3.86-3.61s-1.54-3.58-3.86-3.58h0Z"/><polygon class="cls-1" points="23.87 20.13 23.87 0 36.59 0 36.59 2.45 26.54 2.45 26.54 8.76 35.1 8.76 35.1 11.21 26.54 11.21 26.54 17.68 36.59 17.68 36.59 20.13 23.87 20.13 23.87 20.13"/><polygon class="cls-1" points="60.05 20.13 50.12 5.13 50.12 20.13 47.45 20.13 47.45 0 49.87 0 59.81 14.95 59.81 0 62.47 0 62.47 20.13 60.05 20.13 60.05 20.13"/><polygon class="cls-1" points="79.86 2.45 79.86 20.13 77.2 20.13 77.2 2.45 71.54 2.45 71.54 0 85.52 0 85.52 2.45 79.86 2.45 79.86 2.45"/><path class="cls-2" d="m106.56,20.13l-1.56-4.42h-8.13l-1.56,4.42h-2.85L99.87,0h2.16l7.38,20.13h-2.85Zm-5.59-15.98l-3.27,9.16h6.49l-3.22-9.16h0Z"/><path class="cls-2" d="m122.02,0h2.67v9.27h-2.67V0h0Zm0,20.13v-9.04h2.67v6.59h10v2.45h-12.66Z"/><path class="cls-2" d="m154.7,20.13l-1.57-4.42h-8.13l-1.57,4.42h-2.84l7.41-20.13h2.16l7.38,20.13h-2.84Zm-5.59-15.98l-3.27,9.16h6.49l-3.22-9.16h0Z"/><path class="cls-2" d="m174.75,20.13h-7.9V0h7.65c3.53,0,6.06,2.04,6.06,5.51,0,1.92-1.02,3.49-2.46,4.28,1.65.84,2.76,2.45,2.76,4.65,0,3.73-2.53,5.7-6.11,5.7h0Zm-.41-17.68h-4.82v6.2h4.82c2.07,0,3.55-.99,3.55-3.11s-1.48-3.09-3.55-3.09h0Zm.22,8.65h-5.04v6.58h5.04c2.28,0,3.63-1.29,3.63-3.31s-1.35-3.28-3.63-3.28h0Z"/><path class="cls-1" d="m131.36,10.29c0,.92-.75,1.67-1.67,1.67s-1.67-.75-1.67-1.67.75-1.67,1.67-1.67,1.67.75,1.67,1.67h0Z"/><path class="cls-1" d="m117.42,8.62c-.92,0-1.67.75-1.67,1.67s.75,1.67,1.67,1.67,1.67-.75,1.67-1.67-.75-1.67-1.67-1.67Zm0,2.85c-.65,0-1.18-.53-1.18-1.18s.53-1.18,1.18-1.18,1.18.53,1.18,1.18-.53,1.18-1.18,1.18Z"/></svg>